{
	"asset":{
		"version":"2.0",
		"generator":"Created using the official Cinema 4D glTF Exporter 1.000x284978"
	},
	"scenes":[{
		"nodes":[0]
	}],
	"nodes":[{
		"name":"scene_hallway",
		"translation":[-363.8388366699219,
		418.74029541015627,
		-1081.953857421875],
		"rotation":[-1.2246468525851679e-16,
		0.0,
		0.0,
		-1.0],
		"scale":[1.0,
		1.0,
		1.0],
		"mesh":0
	}],
	"meshes":[{
		"name":"scene_hallway",
		"primitives":[{
			"attributes":{
				"POSITION":1,
				"TEXCOORD_0":2
			},
			"indices":0
		}]
	}],
	"accessors":[{
		"bufferView":0,
		"type":"SCALAR",
		"componentType":5125,
		"count":389862,
		"byteOffset":0,
		"min":[0],
		"max":[73227]
	},
	{
		"bufferView":1,
		"type":"VEC3",
		"componentType":5126,
		"count":73228,
		"byteOffset":0,
		"min":[-1424.5693359375,
		-439.2417297363281,
		-3698.028076171875],
		"max":[2150.1171875,
		358.7547912597656,
		4185.25830078125]
	},
	{
		"bufferView":1,
		"type":"VEC2",
		"componentType":5126,
		"count":73228,
		"byteOffset":12,
		"min":[-0.5642006397247315,
		-0.4297770857810974],
		"max":[1.564200758934021,
		1.429776906967163]
	}],
	"bufferViews":[{
		"buffer":0,
		"byteOffset":0,
		"byteLength":1559448,
		"target":34963
	},
	{
		"buffer":0,
		"byteOffset":1559448,
		"byteLength":1464560,
		"target":34962,
		"byteStride":20
	}],
	"buffers":[{
		"uri":"data:application/octet-stream;base64,",
		"byteLength":3024008
	}]
}