<svg width="29" height="17" viewBox="0 0 29 17" fill="none" xmlns="http://www.w3.org/2000/svg">
<path d="M6.25587 4.66028L5.81104 4.91703V11.091L6.25587 11.3478V4.66028Z" fill="white"/>
<path d="M4.45216 5.70239L4.00732 5.95914V10.0493L4.45216 10.306V5.70239Z" fill="white"/>
<path d="M5.35402 5.18286L4.90918 5.43663V10.5717L5.35402 10.8284V5.18286Z" fill="white"/>
<path d="M7.15724 4.14087L6.7124 4.39762V11.6135L7.15724 11.8703V4.14087Z" fill="white"/>
<path d="M8.05909 3.61853L7.61426 3.87528V12.1331L8.05909 12.3899V3.61853Z" fill="white"/>
<path d="M2.64595 6.74414L2.2041 7.00089V9.01012L2.64595 9.26389V6.74414Z" fill="white"/>
<path d="M1.30322 8.48772L1.74507 8.74447V7.26367L1.30322 7.52042V8.48772Z" fill="white"/>
<path d="M3.55079 6.2218L3.10596 6.47855V9.52971L3.55079 9.78646V6.2218Z" fill="white"/>
<path d="M8.96046 3.099L8.51562 3.35575V12.6525L8.96046 12.9093V3.099Z" fill="white"/>
<path d="M13.4717 0.495605L13.0269 0.752357V15.2558L13.4717 15.5126V0.495605Z" fill="white"/>
<path d="M13.9282 15.7783L14.3283 16.0111V8.00407V0L13.9282 0.229882V15.7783Z" fill="white"/>
<path d="M12.5673 1.01514L12.1255 1.27189V14.7364L12.5673 14.9932V1.01514Z" fill="white"/>
<path d="M0.843023 7.78613L0.463867 8.00407L0.843023 8.225V7.78613Z" fill="white"/>
<path d="M9.86232 2.57947L9.41748 2.83323V13.1749L9.86232 13.4317V2.57947Z" fill="white"/>
<path d="M10.7637 2.05688L10.3188 2.31364V13.6943L10.7637 13.951V2.05688Z" fill="white"/>
<path d="M11.665 1.53748L11.2231 1.79423V14.2168L11.665 14.4736V1.53748Z" fill="white"/>
<path d="M20.1211 4.66028L19.6792 4.91703V11.091L20.1211 11.3478V4.66028Z" fill="white"/>
<path d="M18.3169 5.70239L17.8721 5.95914V10.0493L18.3169 10.306V5.70239Z" fill="white"/>
<path d="M19.2188 5.18286L18.7739 5.43663V10.5717L19.2188 10.8284V5.18286Z" fill="white"/>
<path d="M21.0219 4.14087L20.5801 4.39762V11.6135L21.0219 11.8703V4.14087Z" fill="white"/>
<path d="M21.9238 3.61853L21.4819 3.87528V12.1331L21.9238 12.3899V3.61853Z" fill="white"/>
<path d="M16.5137 6.74414L16.0688 7.00089V9.01012L16.5137 9.26389V6.74414Z" fill="white"/>
<path d="M15.168 8.48772L15.6128 8.74447V7.26367L15.168 7.52042V8.48772Z" fill="white"/>
<path d="M17.4155 6.2218L16.9707 6.47855V9.52971L17.4155 9.78646V6.2218Z" fill="white"/>
<path d="M22.8286 3.099L22.3838 3.35575V12.6525L22.8286 12.9093V3.099Z" fill="white"/>
<path d="M27.3364 0.495605L26.8916 0.752357V15.2558L27.3364 15.5126V0.495605Z" fill="white"/>
<path d="M27.793 15.7783L28.196 16.0111V8.00407V0L27.793 0.229882V15.7783Z" fill="white"/>
<path d="M26.4351 1.01514L25.9902 1.27189V14.7364L26.4351 14.9932V1.01514Z" fill="white"/>
<path d="M14.7108 7.78613L14.3286 8.00407L14.7108 8.225V7.78613Z" fill="white"/>
<path d="M23.73 2.57947L23.2852 2.83323V13.1749L23.73 13.4317V2.57947Z" fill="white"/>
<path d="M24.6314 2.05688L24.1865 2.31364V13.6943L24.6314 13.951V2.05688Z" fill="white"/>
<path d="M25.5327 1.53748L25.0879 1.79423V14.2168L25.5327 14.4736V1.53748Z" fill="white"/>
</svg>
